<?xml version="1.0" encoding="UTF-8"?>
<svg xmlns="http://www.w3.org/2000/svg" xmlns:xlink="http://www.w3.org/1999/xlink" width="32pt" height="32pt" viewBox="0 0 32 32" version="1.1">
<defs>
<linearGradient id="linear0" gradientUnits="userSpaceOnUse" x1="86" y1="14.10938" x2="86" y2="158.116379" gradientTransform="matrix(0.186047,0,0,0.186047,0,0)">
<stop offset="0" style="stop-color:rgb(96.078432%,48.627451%,0%);stop-opacity:1;"/>
<stop offset="1" style="stop-color:rgb(100%,44.313726%,60.392159%);stop-opacity:1;"/>
</linearGradient>
<linearGradient id="linear1" gradientUnits="userSpaceOnUse" x1="86.819687" y1="47.03125" x2="86.819687" y2="125.041313" gradientTransform="matrix(0.186047,0,0,0.186047,0,0)">
<stop offset="0" style="stop-color:rgb(100%,70.588237%,40.000001%);stop-opacity:1;"/>
<stop offset="1" style="stop-color:rgb(100%,88.235295%,91.764706%);stop-opacity:1;"/>
</linearGradient>
</defs>
<g id="surface7424227">
<path style=" stroke:none;fill-rule:nonzero;fill:url(#linear0);" d="M 3.199219 28.847656 L 5.09375 21.925781 C 4.058594 20.054688 3.511719 17.9375 3.511719 15.789062 C 3.515625 8.820312 9.1875 3.152344 16.15625 3.152344 C 19.535156 3.152344 22.714844 4.46875 25.101562 6.859375 C 27.488281 9.246094 28.800781 12.433594 28.800781 15.828125 C 28.796875 22.816406 23.125 28.5 16.15625 28.5 C 14.144531 28.5 12.121094 27.992188 10.285156 27.023438 Z M 10.414062 25.960938 L 10.585938 26.054688 C 12.324219 27 14.246094 27.5 16.152344 27.5 C 22.574219 27.5 27.796875 22.265625 27.800781 15.828125 C 27.800781 12.699219 26.589844 9.765625 24.394531 7.566406 C 22.195312 5.363281 19.269531 4.152344 16.15625 4.152344 C 9.738281 4.152344 4.515625 9.371094 4.511719 15.789062 C 4.511719 17.835938 5.046875 19.847656 6.066406 21.609375 L 6.171875 21.789062 L 4.621094 27.449219 Z M 16.15625 26.5 C 14.3125 26.5 12.449219 25.96875 10.757812 24.96875 L 10.539062 24.808594 L 6.113281 25.972656 L 7.304688 21.625 L 7.183594 21.433594 C 6.121094 19.742188 5.5625 17.796875 5.5625 15.796875 C 5.566406 9.960938 10.320312 5.214844 16.160156 5.214844 C 18.980469 5.214844 21.640625 6.324219 23.648438 8.335938 C 25.648438 10.335938 26.75 13.007812 26.75 15.855469 C 26.746094 21.722656 21.996094 26.5 16.15625 26.5 Z M 11.292969 24.121094 C 12.820312 25.023438 14.5 25.5 16.152344 25.5 C 21.445312 25.5 25.746094 21.171875 25.75 15.855469 C 25.75 13.273438 24.753906 10.855469 22.941406 9.042969 C 21.121094 7.21875 18.714844 6.214844 16.160156 6.214844 C 10.871094 6.214844 6.566406 10.515625 6.5625 15.796875 C 6.5625 17.609375 7.070312 19.371094 8.027344 20.898438 L 8.386719 21.464844 L 7.539062 24.5625 L 10.753906 23.71875 Z M 11.292969 24.121094 "/>
<path style=" stroke:none;fill-rule:evenodd;fill:url(#linear1);" d="M 13.058594 10.609375 C 12.828125 10.09375 12.585938 10.082031 12.363281 10.074219 C 12.183594 10.066406 11.976562 10.066406 11.769531 10.066406 C 11.5625 10.066406 11.226562 10.144531 10.945312 10.453125 C 10.660156 10.765625 9.859375 11.511719 9.859375 13.035156 C 9.859375 14.558594 10.96875 16.03125 11.125 16.238281 C 11.28125 16.445312 13.265625 19.671875 16.414062 20.914062 C 19.03125 21.945312 19.5625 21.738281 20.128906 21.6875 C 20.695312 21.636719 21.960938 20.9375 22.21875 20.214844 C 22.476562 19.492188 22.476562 18.871094 22.398438 18.742188 C 22.324219 18.613281 22.117188 18.535156 21.804688 18.382812 C 21.496094 18.226562 19.972656 17.476562 19.691406 17.375 C 19.40625 17.273438 19.199219 17.21875 18.992188 17.53125 C 18.785156 17.839844 18.195312 18.535156 18.011719 18.742188 C 17.832031 18.949219 17.652344 18.976562 17.34375 18.820312 C 17.03125 18.664062 16.035156 18.339844 14.851562 17.285156 C 13.933594 16.464844 13.308594 15.449219 13.128906 15.140625 C 12.949219 14.832031 13.109375 14.664062 13.265625 14.507812 C 13.40625 14.371094 13.574219 14.148438 13.730469 13.964844 C 13.886719 13.785156 13.9375 13.65625 14.039062 13.449219 C 14.144531 13.242188 14.089844 13.0625 14.015625 12.90625 C 13.9375 12.75 13.335938 11.222656 13.058594 10.609375 Z M 13.058594 10.609375 "/>
</g>
</svg>
