<?xml version="1.0" encoding="UTF-8"?>
<svg xmlns="http://www.w3.org/2000/svg" xmlns:xlink="http://www.w3.org/1999/xlink" width="32pt" height="32pt" viewBox="0 0 32 32" version="1.1">
<defs>
<linearGradient id="linear0" gradientUnits="userSpaceOnUse" x1="86" y1="26.702999" x2="86" y2="140.274063" gradientTransform="matrix(0.186047,0,0,0.186047,0,0)">
<stop offset="0" style="stop-color:rgb(96.078432%,48.627451%,0%);stop-opacity:1;"/>
<stop offset="1" style="stop-color:rgb(100%,44.313726%,60.392159%);stop-opacity:1;"/>
</linearGradient>
<linearGradient id="linear1" gradientUnits="userSpaceOnUse" x1="104.551811" y1="26.702999" x2="104.551811" y2="140.274063" gradientTransform="matrix(0.186047,0,0,0.186047,0,0)">
<stop offset="0" style="stop-color:rgb(96.078432%,48.627451%,0%);stop-opacity:1;"/>
<stop offset="1" style="stop-color:rgb(100%,44.313726%,60.392159%);stop-opacity:1;"/>
</linearGradient>
<linearGradient id="linear2" gradientUnits="userSpaceOnUse" x1="112.875" y1="48.318562" x2="112.875" y2="57.856499" gradientTransform="matrix(0.5,0,0,0.5,0,0)">
<stop offset="0" style="stop-color:rgb(100%,70.588237%,40.000001%);stop-opacity:1;"/>
<stop offset="1" style="stop-color:rgb(100%,88.235295%,91.764706%);stop-opacity:1;"/>
</linearGradient>
</defs>
<g id="surface9300555">
<path style=" stroke:none;fill-rule:nonzero;fill:url(#linear0);" d="M 28.796875 8.042969 C 28.65625 7.871094 28.417969 7.816406 28.210938 7.90625 C 27.90625 8.042969 27.589844 8.164062 27.265625 8.265625 C 27.679688 7.75 27.996094 7.160156 28.203125 6.523438 C 28.265625 6.324219 28.203125 6.109375 28.039062 5.976562 C 27.878906 5.847656 27.652344 5.832031 27.476562 5.9375 C 26.585938 6.457031 25.640625 6.832031 24.65625 7.046875 C 23.621094 6.0625 22.222656 5.5 20.777344 5.5 C 17.691406 5.5 15.183594 7.988281 15.183594 11.046875 C 15.183594 11.25 15.195312 11.453125 15.214844 11.65625 C 11.511719 11.304688 8.070312 9.484375 5.703125 6.605469 C 5.597656 6.476562 5.445312 6.410156 5.277344 6.421875 C 5.117188 6.433594 4.96875 6.527344 4.886719 6.667969 C 4.390625 7.507812 4.125 8.472656 4.125 9.464844 C 4.125 10.6875 4.53125 11.851562 5.25 12.804688 C 5.105469 12.742188 4.960938 12.671875 4.820312 12.597656 C 4.664062 12.515625 4.476562 12.515625 4.328125 12.609375 C 4.175781 12.699219 4.082031 12.863281 4.082031 13.039062 L 4.082031 13.097656 C 4.082031 14.949219 5.015625 16.632812 6.476562 17.648438 C 6.46875 17.648438 6.464844 17.648438 6.457031 17.644531 C 6.28125 17.613281 6.109375 17.675781 5.992188 17.808594 C 5.878906 17.941406 5.839844 18.125 5.894531 18.292969 C 6.484375 20.117188 7.96875 21.476562 9.777344 21.957031 C 8.277344 22.84375 6.578125 23.304688 4.800781 23.304688 C 4.40625 23.304688 4.019531 23.285156 3.644531 23.238281 C 3.410156 23.207031 3.191406 23.347656 3.113281 23.566406 C 3.035156 23.785156 3.121094 24.03125 3.316406 24.15625 C 5.738281 25.691406 8.53125 26.5 11.394531 26.5 C 20.78125 26.5 26.390625 18.941406 26.390625 11.632812 C 26.390625 11.496094 26.386719 11.363281 26.382812 11.226562 C 27.335938 10.515625 28.160156 9.648438 28.832031 8.640625 C 28.953125 8.457031 28.941406 8.214844 28.796875 8.042969 Z M 25.582031 10.570312 C 25.445312 10.671875 25.363281 10.832031 25.371094 11.003906 C 25.382812 11.210938 25.390625 11.421875 25.390625 11.632812 C 25.390625 18.449219 20.15625 25.5 11.394531 25.5 C 9.402344 25.5 7.449219 25.078125 5.644531 24.273438 C 7.757812 24.113281 9.746094 23.347656 11.433594 22.039062 C 11.601562 21.910156 11.667969 21.6875 11.601562 21.488281 C 11.535156 21.285156 11.347656 21.148438 11.136719 21.144531 C 9.445312 21.113281 7.933594 20.167969 7.160156 18.726562 C 7.71875 18.746094 8.261719 18.679688 8.800781 18.53125 C 9.023438 18.46875 9.175781 18.261719 9.167969 18.03125 C 9.160156 17.800781 8.992188 17.605469 8.765625 17.558594 C 6.878906 17.183594 5.449219 15.671875 5.144531 13.835938 C 5.703125 14.035156 6.292969 14.148438 6.878906 14.167969 C 7.105469 14.171875 7.300781 14.03125 7.367188 13.820312 C 7.4375 13.605469 7.355469 13.375 7.167969 13.25 C 5.890625 12.402344 5.128906 10.984375 5.128906 9.464844 C 5.128906 8.894531 5.234375 8.339844 5.433594 7.820312 C 8.09375 10.734375 11.828125 12.5 15.792969 12.699219 C 15.957031 12.710938 16.101562 12.640625 16.199219 12.523438 C 16.300781 12.402344 16.339844 12.238281 16.304688 12.085938 C 16.222656 11.746094 16.183594 11.394531 16.183594 11.050781 C 16.183594 8.539062 18.246094 6.5 20.777344 6.5 C 22.046875 6.5 23.265625 7.023438 24.128906 7.9375 C 24.246094 8.058594 24.417969 8.117188 24.585938 8.085938 C 25.277344 7.949219 25.957031 7.75 26.609375 7.480469 C 26.246094 7.984375 25.777344 8.410156 25.230469 8.738281 C 25.027344 8.859375 24.9375 9.105469 25.011719 9.328125 C 25.089844 9.550781 25.3125 9.695312 25.546875 9.664062 C 26.023438 9.605469 26.488281 9.515625 26.945312 9.402344 C 26.53125 9.832031 26.074219 10.222656 25.582031 10.570312 Z M 25.582031 10.570312 "/>
<path style=" stroke:none;fill-rule:nonzero;fill:url(#linear1);" d="M 15.386719 22.894531 L 15.695312 23.84375 C 19.257812 22.679688 22.109375 19.886719 23.515625 16.179688 L 22.582031 15.824219 C 21.816406 17.835938 19.867188 21.429688 15.386719 22.894531 Z M 15.386719 22.894531 "/>
<path style=" stroke:none;fill-rule:nonzero;fill:url(#linear2);" d="M 22 10 C 22 10.550781 21.550781 11 21 11 C 20.449219 11 20 10.550781 20 10 C 20 9.449219 20.449219 9 21 9 C 21.550781 9 22 9.449219 22 10 Z M 22 10 "/>
</g>
</svg>
