<?xml version="1.0" encoding="UTF-8"?>
<svg xmlns="http://www.w3.org/2000/svg" xmlns:xlink="http://www.w3.org/1999/xlink" width="32pt" height="32pt" viewBox="0 0 32 32" version="1.1">
<defs>
<linearGradient id="linear0" gradientUnits="userSpaceOnUse" x1="83.309807" y1="43" x2="83.309807" y2="148.731628" gradientTransform="matrix(0.186047,0,0,0.186047,0,0)">
<stop offset="0" style="stop-color:rgb(100%,70.588237%,40.000001%);stop-opacity:1;"/>
<stop offset="1" style="stop-color:rgb(100%,88.235295%,91.764706%);stop-opacity:1;"/>
</linearGradient>
<linearGradient id="linear1" gradientUnits="userSpaceOnUse" x1="86" y1="13.4375" x2="86" y2="159.011307" gradientTransform="matrix(0.186047,0,0,0.186047,0,0)">
<stop offset="0" style="stop-color:rgb(96.078432%,48.627451%,0%);stop-opacity:1;"/>
<stop offset="1" style="stop-color:rgb(100%,44.313726%,60.392159%);stop-opacity:1;"/>
</linearGradient>
</defs>
<g id="surface9297623">
<path style=" stroke:none;fill-rule:nonzero;fill:url(#linear0);" d="M 12.503906 28.003906 C 12.503906 27.820312 12.5 27.023438 12.5 26.277344 L 12.496094 25.5 C 9.132812 25.960938 8.320312 23.613281 8.308594 23.585938 C 7.84375 22.402344 7.203125 22.0625 7.175781 22.050781 L 7.113281 22.015625 C 6.882812 21.855469 6.269531 21.433594 6.445312 20.882812 C 6.601562 20.382812 7.210938 20.332031 7.488281 20.339844 C 9.027344 20.449219 9.804688 21.832031 9.835938 21.890625 C 10.621094 23.234375 11.820312 23.09375 12.589844 22.8125 C 12.664062 22.46875 12.773438 22.152344 12.921875 21.871094 C 10.441406 21.433594 7.636719 20.113281 7.636719 15.320312 C 7.636719 14.003906 8.046875 12.839844 8.855469 11.855469 C 8.675781 11.253906 8.46875 10.023438 9.078125 8.472656 L 9.164062 8.253906 L 9.390625 8.179688 C 9.597656 8.113281 10.734375 7.867188 13.070312 9.398438 C 14.035156 9.148438 15.054688 9.023438 16.109375 9.015625 C 17.164062 9.023438 18.1875 9.148438 19.152344 9.398438 C 21.488281 7.867188 22.621094 8.113281 22.828125 8.179688 L 23.054688 8.253906 L 23.140625 8.472656 C 23.753906 10.023438 23.546875 11.253906 23.367188 11.855469 C 24.175781 12.835938 24.585938 14 24.585938 15.320312 C 24.585938 20.117188 21.773438 21.429688 19.292969 21.863281 C 19.574219 22.394531 19.726562 23.066406 19.726562 23.800781 C 19.726562 24.644531 19.722656 27.40625 19.71875 28.003906 L 18.71875 27.996094 C 18.722656 27.398438 18.726562 24.640625 18.726562 23.800781 C 18.726562 22.582031 18.253906 22.039062 18.050781 21.863281 L 17.183594 21.117188 L 18.324219 20.988281 C 20.925781 20.699219 23.585938 19.800781 23.585938 15.320312 C 23.585938 14.15625 23.195312 13.140625 22.429688 12.300781 L 22.214844 12.066406 L 22.335938 11.773438 C 22.417969 11.574219 22.78125 10.550781 22.316406 9.128906 C 21.933594 9.152344 21.03125 9.328125 19.523438 10.351562 L 19.332031 10.480469 L 19.109375 10.417969 C 18.175781 10.160156 17.140625 10.023438 16.109375 10.015625 C 15.082031 10.023438 14.046875 10.160156 13.117188 10.417969 L 12.894531 10.480469 L 12.703125 10.351562 C 11.191406 9.328125 10.285156 9.148438 9.90625 9.128906 C 9.4375 10.550781 9.800781 11.574219 9.882812 11.773438 L 10.003906 12.066406 L 9.789062 12.300781 C 9.023438 13.140625 8.632812 14.15625 8.632812 15.320312 C 8.632812 19.796875 11.289062 20.703125 13.886719 21 L 15.011719 21.128906 L 14.15625 21.871094 C 13.972656 22.035156 13.644531 22.429688 13.53125 23.238281 L 13.492188 23.511719 L 13.242188 23.625 C 12.578125 23.921875 10.320312 24.707031 8.964844 22.382812 C 8.960938 22.371094 8.695312 21.910156 8.214844 21.601562 C 8.539062 21.921875 8.933594 22.441406 9.25 23.246094 C 9.28125 23.34375 9.929688 25.058594 12.890625 24.417969 L 13.492188 24.285156 L 13.5 26.273438 C 13.5 27.019531 13.5 27.8125 13.503906 27.996094 Z M 12.503906 28.003906 "/>
<path style=" stroke:none;fill-rule:nonzero;fill:url(#linear1);" d="M 16 29 C 8.832031 29 3 23.167969 3 16 C 3 8.832031 8.832031 3 16 3 C 23.167969 3 29 8.832031 29 16 C 29 23.167969 23.167969 29 16 29 Z M 16 4 C 9.382812 4 4 9.382812 4 16 C 4 22.617188 9.382812 28 16 28 C 22.617188 28 28 22.617188 28 16 C 28 9.382812 22.617188 4 16 4 Z M 16 4 "/>
</g>
</svg>
