<?xml version="1.0" standalone="no"?>
<!DOCTYPE svg PUBLIC "-//W3C//DTD SVG 20010904//EN"
 "http://www.w3.org/TR/2001/REC-SVG-20010904/DTD/svg10.dtd">
<svg version="1.0" xmlns="http://www.w3.org/2000/svg"
 width="47.000000pt" height="31.000000pt" viewBox="0 0 47.000000 31.000000"
 preserveAspectRatio="xMidYMid meet">

<g transform="translate(0.000000,31.000000) scale(0.100000,-0.100000)"
fill="#000000" stroke="none">
<path d="M32 178 c17 -46 35 -98 41 -115 9 -29 14 -33 47 -33 33 0 38 4 47 33
6 17 24 69 41 115 l31 83 -31 -3 c-30 -3 -33 -7 -57 -80 -14 -43 -28 -78 -31
-78 -3 0 -17 35 -31 78 -24 73 -27 77 -57 80 l-31 3 31 -83z"/>
<path d="M324 250 c-55 -22 -81 -103 -53 -164 22 -47 110 -70 173 -46 24 9 26
15 26 65 l0 55 -45 0 c-38 0 -45 -3 -45 -20 0 -14 7 -20 21 -20 15 0 20 -5 17
-22 -4 -29 -40 -35 -74 -13 -22 14 -25 22 -22 63 2 38 8 49 30 61 22 12 35 13
67 5 39 -11 41 -10 41 11 0 15 -8 25 -22 29 -32 8 -89 6 -114 -4z"/>
</g>
</svg>
