<?xml version="1.0" standalone="no"?>
<!DOCTYPE svg PUBLIC "-//W3C//DTD SVG 20010904//EN"
 "http://www.w3.org/TR/2001/REC-SVG-20010904/DTD/svg10.dtd">
<svg version="1.0" xmlns="http://www.w3.org/2000/svg"
 width="47.000000pt" height="31.000000pt" viewBox="0 0 47.000000 31.000000"
 preserveAspectRatio="xMidYMid meet">

<g transform="translate(0.000000,31.000000) scale(0.100000,-0.100000)"
fill="#000000" stroke="none">
<path d="M14 262 c59 -185 73 -217 96 -217 23 0 37 32 96 217 4 14 0 18 -19
18 -22 0 -27 -8 -48 -84 -13 -47 -26 -83 -30 -80 -4 2 -10 16 -14 31 -27 114
-36 133 -61 133 -20 0 -24 -4 -20 -18z"/>
<path d="M295 271 c-51 -21 -80 -84 -65 -141 20 -74 103 -113 158 -74 12 8 22
10 22 5 0 -6 7 -11 15 -11 12 0 15 13 15 60 l0 60 -45 0 c-38 0 -45 -3 -45
-20 0 -15 7 -20 25 -20 31 0 32 -14 3 -34 -30 -21 -51 -20 -79 3 -32 26 -32
96 1 123 29 23 51 23 83 -2 26 -21 57 -27 57 -11 0 52 -82 87 -145 62z"/>
</g>
</svg>
